<?xml version="1.0" encoding="utf-8"?>
<!-- Generator: Adobe Illustrator 20.1.0, SVG Export Plug-In . SVG Version: 6.00 Build 0)  -->
<svg version="1.1" id="Layer_1" xmlns:sketch="http://www.bohemiancoding.com/sketch/ns"
	 xmlns="http://www.w3.org/2000/svg" xmlns:xlink="http://www.w3.org/1999/xlink" x="0px" y="0px" viewBox="0 0 91 90.4"
	 style="enable-background:new 0 0 91 90.4;" xml:space="preserve">
<style type="text/css">
	.st0{fill:#FFFFFF;}
</style>
<title>alert_off</title>
<desc>Created with Sketch.</desc>
<g sketch:type="MSPage">
	<g transform="translate(-443.000000, -615.000000)" sketch:type="MSArtboardGroup">
		<path sketch:type="MSShapeGroup" class="st0" d="M448.8,691.6c-2.4-0.1-4.3-0.2-5.6-0.3c-0.1-4.1,0.4-6.7,1.8-9.1
			c1.9-3.2,7-5.6,11.2-10.7c4.3-5.2,5.6-23.4,9.9-35.9c3.3-9.7,11.4-12.7,17.1-13.5v-1.6c0-2.8,2.3-5.1,5.1-5.1
			c2.8,0,5.1,2.3,5.1,5.1v1.6l0,0c4.9,0.7,11.5,3,15.4,9.7L448.8,691.6L448.8,691.6z M476.7,692.1c22.5,0.1,48.9-0.1,56.6-0.7
			c0.1-4.1-0.4-6.7-1.8-9.1c-1.9-3.2-7-5.6-11.2-10.7c-2.4-2.9-3.9-9.9-5.4-17.6L476.7,692.1L476.7,692.1z M498.2,695.6
			c0,5.4-4.5,9.8-10,9.8s-10-4.4-10-9.8H498.2L498.2,695.6z M528.9,632.8c2-2,2-5.1,0-7.1s-5.1-2-7.1,0l-70.7,70.7c-2,2-2,5.1,0,7.1
			s5.1,2,7.1,0L528.9,632.8z"/>
	</g>
</g>
</svg>
